# xmcd
#
# Track frame offsets:
#	150
#	29447
#	52516
#	64656
#	86585
#	103245
#	135497
#	161122
#	192676
#	218684
#	242496
#	267347
#	282297
#	311494
#	331471
#	350426
#
# Disc length: 4772 seconds
#
# Revision: 0
# Processed by: cddbd v1.5.2PL0 Copyright (c) Steve Scherf et al.
# Submitted via: dBpowerAMP V4.0
#
DISCID=ea12a210
DTITLE=Eski Kurtlar - Bozlaklar Ve Türküler
DYEAR=1900
DGENRE=
TTITLE0=Aydýn Ertürk - Belli Deyil
TTITLE1=Aydýn Ertürk - Suya Gider
TTITLE2=Yusuf Özdemir - Develi oðlu
TTITLE3=Yusuf Özdemir - Yanar Giderim
TTITLE4=Nuri Erkaya - Hozartýn nü
TTITLE5=Nuri Erkaya - Gezdir Oðun Gýratý Gezdir
TTITLE6=Baki Kýlýçarslan - Burcu Burcu Köyüm
TTITLE7=Baki Kýlýçarslan - Kalenderin Aðýtý
TTITLE8=Ýlyas Þen - Acep Kimler Yumar Gözünü
TTITLE9=Ýlyas Þen - Beklemesin Sunam Kaldým Kayada
TTITLE10=Muammer Öztaþ - Eriyor Fatma
TTITLE11=Muammer Öztaþ - Arkadaþým
TTITLE12=Oktay Usta - Aydost Daðlarý
TTITLE13=Oktay Usta - Þimdi Mutlumusun
TTITLE14=Abdullah Ay - Böyle Ayrýlýðý Ben Ýstemedim
TTITLE15=Abdullah Ay - Güzel Çankýrý
EXTD=
EXTT0=
EXTT1=
EXTT2=
EXTT3=
EXTT4=
EXTT5=
EXTT6=
EXTT7=
EXTT8=
EXTT9=
EXTT10=
EXTT11=
EXTT12=
EXTT13=
EXTT14=
EXTT15=
PLAYORDER=
